<mxfile host="app.diagrams.net" modified="2023-09-22T11:26:09.448Z" agent="Mozilla/5.0 (Windows NT 10.0; Win64; x64; rv:109.0) Gecko/20100101 Firefox/117.0" etag="FJgh2nmuXLEo3004xm_V" version="21.8.0" type="device">
  <diagram name="Page-1" id="hcwU8oPMDGAtIEjc8EsR">
    <mxGraphModel dx="1050" dy="530" grid="0" gridSize="10" guides="1" tooltips="1" connect="1" arrows="1" fold="1" page="1" pageScale="1" pageWidth="827" pageHeight="1169" math="0" shadow="0">
      <root>
        <mxCell id="0" />
        <mxCell id="1" parent="0" />
        <mxCell id="XtzSiCUmQisljc_bNZya-8" value="&lt;b&gt;Product&lt;/b&gt;" style="swimlane;fontStyle=0;childLayout=stackLayout;horizontal=1;startSize=30;horizontalStack=0;resizeParent=1;resizeParentMax=0;resizeLast=0;collapsible=1;marginBottom=0;whiteSpace=wrap;html=1;fillColor=#dae8fc;strokeColor=#6c8ebf;" vertex="1" parent="1">
          <mxGeometry x="120" y="80" width="190" height="120" as="geometry" />
        </mxCell>
        <mxCell id="XtzSiCUmQisljc_bNZya-9" value="-Productcode" style="text;strokeColor=#6c8ebf;fillColor=#dae8fc;align=left;verticalAlign=middle;spacingLeft=4;spacingRight=4;overflow=hidden;points=[[0,0.5],[1,0.5]];portConstraint=eastwest;rotatable=0;whiteSpace=wrap;html=1;" vertex="1" parent="XtzSiCUmQisljc_bNZya-8">
          <mxGeometry y="30" width="190" height="30" as="geometry" />
        </mxCell>
        <mxCell id="XtzSiCUmQisljc_bNZya-10" value="-Productnaam" style="text;strokeColor=#6c8ebf;fillColor=#dae8fc;align=left;verticalAlign=middle;spacingLeft=4;spacingRight=4;overflow=hidden;points=[[0,0.5],[1,0.5]];portConstraint=eastwest;rotatable=0;whiteSpace=wrap;html=1;" vertex="1" parent="XtzSiCUmQisljc_bNZya-8">
          <mxGeometry y="60" width="190" height="30" as="geometry" />
        </mxCell>
        <mxCell id="XtzSiCUmQisljc_bNZya-11" value="-Prijs" style="text;strokeColor=#6c8ebf;fillColor=#dae8fc;align=left;verticalAlign=middle;spacingLeft=4;spacingRight=4;overflow=hidden;points=[[0,0.5],[1,0.5]];portConstraint=eastwest;rotatable=0;whiteSpace=wrap;html=1;" vertex="1" parent="XtzSiCUmQisljc_bNZya-8">
          <mxGeometry y="90" width="190" height="30" as="geometry" />
        </mxCell>
        <mxCell id="XtzSiCUmQisljc_bNZya-12" value="&lt;b&gt;Productgroep&lt;/b&gt;" style="swimlane;fontStyle=0;childLayout=stackLayout;horizontal=1;startSize=30;horizontalStack=0;resizeParent=1;resizeParentMax=0;resizeLast=0;collapsible=1;marginBottom=0;whiteSpace=wrap;html=1;fillColor=#dae8fc;strokeColor=#6c8ebf;" vertex="1" parent="1">
          <mxGeometry x="120" y="360" width="190" height="90" as="geometry" />
        </mxCell>
        <mxCell id="XtzSiCUmQisljc_bNZya-13" value="-Productgroepcode" style="text;strokeColor=#6c8ebf;fillColor=#dae8fc;align=left;verticalAlign=middle;spacingLeft=4;spacingRight=4;overflow=hidden;points=[[0,0.5],[1,0.5]];portConstraint=eastwest;rotatable=0;whiteSpace=wrap;html=1;" vertex="1" parent="XtzSiCUmQisljc_bNZya-12">
          <mxGeometry y="30" width="190" height="30" as="geometry" />
        </mxCell>
        <mxCell id="XtzSiCUmQisljc_bNZya-14" value="-Productgroepnaam" style="text;strokeColor=#6c8ebf;fillColor=#dae8fc;align=left;verticalAlign=middle;spacingLeft=4;spacingRight=4;overflow=hidden;points=[[0,0.5],[1,0.5]];portConstraint=eastwest;rotatable=0;whiteSpace=wrap;html=1;" vertex="1" parent="XtzSiCUmQisljc_bNZya-12">
          <mxGeometry y="60" width="190" height="30" as="geometry" />
        </mxCell>
        <mxCell id="XtzSiCUmQisljc_bNZya-16" value="&lt;b&gt;Afbeelding&lt;br&gt;&lt;/b&gt;" style="swimlane;fontStyle=0;childLayout=stackLayout;horizontal=1;startSize=30;horizontalStack=0;resizeParent=1;resizeParentMax=0;resizeLast=0;collapsible=1;marginBottom=0;whiteSpace=wrap;html=1;fillColor=#dae8fc;strokeColor=#6c8ebf;" vertex="1" parent="1">
          <mxGeometry x="539" y="384" width="190" height="60" as="geometry" />
        </mxCell>
        <mxCell id="XtzSiCUmQisljc_bNZya-17" value="-Link naar plaatje" style="text;strokeColor=#6c8ebf;fillColor=#dae8fc;align=left;verticalAlign=middle;spacingLeft=4;spacingRight=4;overflow=hidden;points=[[0,0.5],[1,0.5]];portConstraint=eastwest;rotatable=0;whiteSpace=wrap;html=1;" vertex="1" parent="XtzSiCUmQisljc_bNZya-16">
          <mxGeometry y="30" width="190" height="30" as="geometry" />
        </mxCell>
        <mxCell id="XtzSiCUmQisljc_bNZya-28" value="&lt;div&gt;Kan hebben&lt;/div&gt;" style="text;strokeColor=none;fillColor=none;align=left;verticalAlign=middle;spacingLeft=4;spacingRight=4;overflow=hidden;points=[[0,0.5],[1,0.5]];portConstraint=eastwest;rotatable=0;whiteSpace=wrap;html=1;" vertex="1" parent="1">
          <mxGeometry x="398" y="244" width="80" height="30" as="geometry" />
        </mxCell>
        <mxCell id="XtzSiCUmQisljc_bNZya-31" value="" style="endArrow=none;html=1;rounded=0;entryX=-0.05;entryY=-0.2;entryDx=0;entryDy=0;entryPerimeter=0;exitX=0.995;exitY=0.933;exitDx=0;exitDy=0;exitPerimeter=0;" edge="1" parent="1" source="XtzSiCUmQisljc_bNZya-11" target="XtzSiCUmQisljc_bNZya-28">
          <mxGeometry width="50" height="50" relative="1" as="geometry">
            <mxPoint x="387" y="306" as="sourcePoint" />
            <mxPoint x="437" y="256" as="targetPoint" />
          </mxGeometry>
        </mxCell>
        <mxCell id="XtzSiCUmQisljc_bNZya-32" value="" style="endArrow=none;html=1;rounded=0;entryX=0;entryY=0;entryDx=0;entryDy=0;exitX=0.5;exitY=1.133;exitDx=0;exitDy=0;exitPerimeter=0;" edge="1" parent="1" source="XtzSiCUmQisljc_bNZya-28" target="XtzSiCUmQisljc_bNZya-16">
          <mxGeometry width="50" height="50" relative="1" as="geometry">
            <mxPoint x="387" y="306" as="sourcePoint" />
            <mxPoint x="437" y="256" as="targetPoint" />
          </mxGeometry>
        </mxCell>
        <mxCell id="XtzSiCUmQisljc_bNZya-33" value="&lt;div&gt;Zit in&lt;/div&gt;" style="text;html=1;align=center;verticalAlign=middle;resizable=0;points=[];autosize=1;strokeColor=none;fillColor=none;" vertex="1" parent="1">
          <mxGeometry x="175.5" y="263" width="42" height="26" as="geometry" />
        </mxCell>
        <mxCell id="XtzSiCUmQisljc_bNZya-34" value="" style="endArrow=none;html=1;rounded=0;entryX=0.442;entryY=1.067;entryDx=0;entryDy=0;entryPerimeter=0;exitX=0.607;exitY=-0.192;exitDx=0;exitDy=0;exitPerimeter=0;" edge="1" parent="1" source="XtzSiCUmQisljc_bNZya-33" target="XtzSiCUmQisljc_bNZya-11">
          <mxGeometry width="50" height="50" relative="1" as="geometry">
            <mxPoint x="387" y="306" as="sourcePoint" />
            <mxPoint x="437" y="256" as="targetPoint" />
          </mxGeometry>
        </mxCell>
        <mxCell id="XtzSiCUmQisljc_bNZya-35" value="" style="endArrow=none;html=1;rounded=0;entryX=0.4;entryY=0.022;entryDx=0;entryDy=0;entryPerimeter=0;exitX=0.583;exitY=0.962;exitDx=0;exitDy=0;exitPerimeter=0;" edge="1" parent="1" source="XtzSiCUmQisljc_bNZya-33" target="XtzSiCUmQisljc_bNZya-12">
          <mxGeometry width="50" height="50" relative="1" as="geometry">
            <mxPoint x="387" y="306" as="sourcePoint" />
            <mxPoint x="437" y="256" as="targetPoint" />
          </mxGeometry>
        </mxCell>
        <mxCell id="XtzSiCUmQisljc_bNZya-36" value="&lt;div&gt;Kan hebben&lt;/div&gt;" style="text;html=1;align=center;verticalAlign=middle;resizable=0;points=[];autosize=1;strokeColor=none;fillColor=none;" vertex="1" parent="1">
          <mxGeometry x="378" y="397" width="80" height="26" as="geometry" />
        </mxCell>
        <mxCell id="XtzSiCUmQisljc_bNZya-37" value="" style="endArrow=none;html=1;rounded=0;entryX=1;entryY=0.5;entryDx=0;entryDy=0;exitX=-0.037;exitY=0.308;exitDx=0;exitDy=0;exitPerimeter=0;" edge="1" parent="1" source="XtzSiCUmQisljc_bNZya-36" target="XtzSiCUmQisljc_bNZya-13">
          <mxGeometry width="50" height="50" relative="1" as="geometry">
            <mxPoint x="387" y="306" as="sourcePoint" />
            <mxPoint x="437" y="256" as="targetPoint" />
          </mxGeometry>
        </mxCell>
        <mxCell id="XtzSiCUmQisljc_bNZya-38" value="" style="endArrow=none;html=1;rounded=0;entryX=1.038;entryY=0.577;entryDx=0;entryDy=0;entryPerimeter=0;exitX=-0.011;exitY=-0.067;exitDx=0;exitDy=0;exitPerimeter=0;" edge="1" parent="1" source="XtzSiCUmQisljc_bNZya-17" target="XtzSiCUmQisljc_bNZya-36">
          <mxGeometry width="50" height="50" relative="1" as="geometry">
            <mxPoint x="387" y="306" as="sourcePoint" />
            <mxPoint x="437" y="256" as="targetPoint" />
          </mxGeometry>
        </mxCell>
        <mxCell id="XtzSiCUmQisljc_bNZya-39" value="0...*" style="text;html=1;align=center;verticalAlign=middle;resizable=0;points=[];autosize=1;strokeColor=none;fillColor=none;" vertex="1" parent="1">
          <mxGeometry x="312.5" y="173" width="39" height="26" as="geometry" />
        </mxCell>
        <mxCell id="XtzSiCUmQisljc_bNZya-40" value="&lt;div&gt;0...*&lt;/div&gt;" style="text;html=1;align=center;verticalAlign=middle;resizable=0;points=[];autosize=1;" vertex="1" parent="1">
          <mxGeometry x="215.5" y="201" width="39" height="26" as="geometry" />
        </mxCell>
        <mxCell id="XtzSiCUmQisljc_bNZya-41" value="1..1" style="text;html=1;align=center;verticalAlign=middle;resizable=0;points=[];autosize=1;strokeColor=none;fillColor=none;" vertex="1" parent="1">
          <mxGeometry x="125.5" y="329" width="37" height="26" as="geometry" />
        </mxCell>
        <mxCell id="XtzSiCUmQisljc_bNZya-42" value="1..1" style="text;html=1;align=center;verticalAlign=middle;resizable=0;points=[];autosize=1;strokeColor=none;fillColor=none;" vertex="1" parent="1">
          <mxGeometry x="270.5" y="325" width="37" height="26" as="geometry" />
        </mxCell>
        <mxCell id="XtzSiCUmQisljc_bNZya-43" value="0..*" style="text;html=1;align=center;verticalAlign=middle;resizable=0;points=[];autosize=1;strokeColor=none;fillColor=none;" vertex="1" parent="1">
          <mxGeometry x="489.5" y="378" width="36" height="26" as="geometry" />
        </mxCell>
        <mxCell id="XtzSiCUmQisljc_bNZya-44" value="0..1" style="text;html=1;align=center;verticalAlign=middle;resizable=0;points=[];autosize=1;strokeColor=none;fillColor=none;" vertex="1" parent="1">
          <mxGeometry x="485.5" y="425" width="37" height="26" as="geometry" />
        </mxCell>
      </root>
    </mxGraphModel>
  </diagram>
</mxfile>
